<svg xmlns="http://www.w3.org/2000/svg" xmlns:xlink="http://www.w3.org/1999/xlink" version="1.1" id="Layer_1" x="0px" y="0px" width="100px" height="100px" viewBox="0 0 100 100" enable-background="new 0 0 100 100" xml:space="preserve">
<g>
	<g>
		<path fill="#000000" d="M50,0.002C22.43,0.002,0,22.431,0,50s22.43,49.997,50,49.997c27.572,0,50-22.428,50-49.997    S77.572,0.002,50,0.002z M50,94.229C25.611,94.229,5.769,74.389,5.769,50C5.769,25.612,25.611,5.771,50,5.771    S94.231,25.612,94.231,50C94.231,74.389,74.389,94.229,50,94.229z"/>
	</g>
	<g>
		<path fill="#000000" d="M66.245,47.115h-13.36V33.754c0-1.593-1.29-2.884-2.885-2.884c-1.593,0-2.884,1.292-2.884,2.884v13.361    H33.755c-1.593,0-2.884,1.292-2.884,2.884c0,1.594,1.292,2.885,2.884,2.885h13.361v13.359c0,1.592,1.292,2.885,2.884,2.885    c1.595,0,2.885-1.293,2.885-2.885V52.885h13.36c1.592,0,2.885-1.291,2.885-2.885C69.13,48.407,67.837,47.115,66.245,47.115z"/>
	</g>
</g>
</svg>