<svg xmlns="http://www.w3.org/2000/svg" xmlns:xlink="http://www.w3.org/1999/xlink" version="1.1" x="0px" y="0px" width="100px" height="100px" viewBox="0 0 100 100" enable-background="new 0 0 100 100" xml:space="preserve">
<g id="Captions" display="none">
</g>
<g id="Your_Icon">
	<path d="M31,26h32V0H31V26z M56,10v6h-6v-6H56z M44,10v6h-6v-6H44z"/>
	<path d="M25,30v64c0,3.3,2.7,6,6,6h32.142c3.3,0,6-2.7,6-6V30H25z M54.991,52.391h-1.149v1.037c0,3.581-1.705,5.084-3.287,6.411   c-1.388,1.163-2.629,2.099-2.682,4.342l0.002,5.92c1.223,0.384,2.257,1.527,2.257,2.881c0,1.666-1.351,3.019-3.018,3.019   c-1.667,0-3.02-1.353-3.02-3.019c0-1.349,1.042-2.479,2.262-2.866v-1.567c-0.01-2.349-1.278-3.289-2.69-4.477   c-1.583-1.326-3.241-2.83-3.241-6.411l-0.002-2.358c-0.676-0.338-1.272-1.031-1.272-1.837c0-1.132,0.918-2.048,2.046-2.048   c1.133,0,2.048,0.916,2.048,2.048c0,0.802-0.557,1.498-1.226,1.832l-0.011,2.69c0,2.739,1.36,3.799,2.821,5.026   c0.462,0.387,1.084,0.798,1.527,1.263V44.948h-1.73L47.107,40l2.488,4.948h-1.723v15.054c0.44-0.462,1.062-0.948,1.518-1.333   c1.46-1.229,2.907-2.288,2.907-5.024v-1.254h-1.146v-4.063h3.839V52.391z"/>
</g>
</svg>